<svg version="1.1" id="Layer_1" xmlns="http://www.w3.org/2000/svg" xmlns:xlink="http://www.w3.org/1999/xlink" x="0px" y="0px"
	 width="100%" viewBox="0 0 283 283" enable-background="new 0 0 283 283" xml:space="preserve">
<path fill="#FFFFFF" opacity="1.000000" stroke="none" 
	d="
M135.000000,284.000000 
	C90.000000,284.000000 45.500000,284.000000 1.000000,284.000000 
	C1.000000,189.666672 1.000000,95.333336 1.000000,1.000000 
	C95.333336,1.000000 189.666672,1.000000 284.000000,1.000000 
	C284.000000,95.333336 284.000000,189.666672 284.000000,284.000000 
	C234.500000,284.000000 185.000000,284.000000 135.000000,284.000000 
M152.386856,158.352493 
	C152.386856,158.352493 152.565308,158.285797 152.867508,159.140121 
	C152.962326,167.464905 153.038940,175.789932 153.156296,184.114395 
	C153.328354,196.316895 160.130844,205.348572 170.825623,207.623184 
	C183.179977,210.250763 194.312210,204.925415 198.882401,193.250809 
	C200.890213,188.121826 201.874573,182.315048 202.012207,176.783386 
	C202.413971,160.635437 202.155075,144.471069 202.155151,128.313126 
	C202.155167,126.545349 202.155151,124.777580 202.155151,122.497620 
	C210.460159,122.497620 218.064163,122.497620 225.575867,122.497620 
	C225.575867,106.771057 225.575867,91.566116 225.575867,76.151726 
	C223.329285,76.151726 221.507385,76.151733 219.685501,76.151733 
	C182.705490,76.151733 145.725449,76.132027 108.745506,76.185440 
	C105.432663,76.190224 102.090553,76.468925 98.813019,76.960411 
	C80.767014,79.666550 65.884041,95.013573 64.087425,112.632729 
	C62.157269,131.561493 72.890900,149.128784 90.452545,155.791443 
	C91.876984,156.331863 93.289909,156.902634 94.708191,157.459290 
	C94.629372,157.833969 94.550560,158.208633 94.471748,158.583313 
	C84.400665,158.583313 74.329582,158.583313 64.339111,158.583313 
	C64.339111,174.046524 64.339111,188.958191 64.339111,203.810089 
	C80.648872,203.810089 96.667122,204.602661 112.574631,203.613800 
	C133.468582,202.314972 143.930328,192.691086 149.106628,172.307907 
	C150.291412,167.642517 151.222809,162.912781 152.386856,158.352493 
z"/>
<path fill="#E7218F" opacity="1.000000" stroke="none" 
	d="
M152.270813,158.212662 
	C151.222809,162.912781 150.291412,167.642517 149.106628,172.307907 
	C143.930328,192.691086 133.468582,202.314972 112.574631,203.613800 
	C96.667122,204.602661 80.648872,203.810089 64.339111,203.810089 
	C64.339111,188.958191 64.339111,174.046524 64.339111,158.583313 
	C74.329582,158.583313 84.400665,158.583313 94.471748,158.583313 
	C94.550560,158.208633 94.629372,157.833969 94.708191,157.459290 
	C93.289909,156.902634 91.876984,156.331863 90.452545,155.791443 
	C72.890900,149.128784 62.157269,131.561493 64.087425,112.632729 
	C65.884041,95.013573 80.767014,79.666550 98.813019,76.960411 
	C102.090553,76.468925 105.432663,76.190224 108.745506,76.185440 
	C145.725449,76.132027 182.705490,76.151733 219.685501,76.151733 
	C221.507385,76.151733 223.329285,76.151726 225.575867,76.151726 
	C225.575867,91.566116 225.575867,106.771057 225.575867,122.497620 
	C218.064163,122.497620 210.460159,122.497620 202.155151,122.497620 
	C202.155151,124.777580 202.155167,126.545349 202.155151,128.313126 
	C202.155075,144.471069 202.413971,160.635437 202.012207,176.783386 
	C201.874573,182.315048 200.890213,188.121826 198.882401,193.250809 
	C194.312210,204.925415 183.179977,210.250763 170.825623,207.623184 
	C160.130844,205.348572 153.328354,196.316895 153.156296,184.114395 
	C153.038940,175.789932 152.962326,167.464905 152.885345,158.640045 
	C152.903168,158.139984 153.094894,157.825912 153.544449,157.932343 
	C158.925781,158.038788 163.857559,158.038788 169.562042,158.038788 
	C164.079529,143.986588 158.831314,130.534866 153.040039,115.691269 
	C147.252182,130.507706 141.999115,143.955139 136.538437,157.934052 
	C142.135498,157.934052 147.048904,157.934052 152.008072,158.038452 
	C152.053833,158.142838 152.270828,158.212662 152.270813,158.212662 
z"/>
<path fill="#ED55AA" opacity="1.000000" stroke="none" 
	d="
M152.734238,158.212891 
	C152.565308,158.285797 152.386856,158.352493 152.328842,158.282578 
	C152.270828,158.212662 152.053833,158.142838 151.936615,157.666046 
	C152.005402,156.295944 152.191391,155.402634 152.377396,154.509338 
	C152.616562,154.537033 152.855728,154.564743 153.094894,154.592453 
	C153.094894,155.670273 153.094894,156.748093 153.094894,157.825912 
	C153.094894,157.825912 152.903168,158.139984 152.734238,158.212891 
z"/>
<path fill="#FFFBFD" opacity="1.000000" stroke="none" 
	d="
M153.544449,157.932343 
	C153.094894,156.748093 153.094894,155.670273 153.094894,154.592453 
	C152.855728,154.564743 152.616562,154.537033 152.377396,154.509338 
	C152.191391,155.402634 152.005402,156.295944 151.890869,157.561646 
	C147.048904,157.934052 142.135498,157.934052 136.538437,157.934052 
	C141.999115,143.955139 147.252182,130.507706 153.040039,115.691269 
	C158.831314,130.534866 164.079529,143.986588 169.562042,158.038788 
	C163.857559,158.038788 158.925781,158.038788 153.544449,157.932343 
z"/>
</svg>